<svg xmlns="http://www.w3.org/2000/svg" id="Layer_1" viewBox="0 0 536 439.13"><defs><style> .cls-1 { fill: #6fcee6; } .cls-2 { fill: #f6d860; } .cls-3 { fill: #51bf9c; } </style></defs><path class="cls-1" d="M12.92,219.57c-7.13,0-12.92,5.78-12.92,12.91v193.73c0,7.14,5.78,12.92,12.92,12.92h193.73c7.13,0,12.92-5.78,12.92-12.92v-193.73c0-7.13-5.78-12.91-12.92-12.91H12.92Z"/><path class="cls-3" d="M190.2,0c-7.13,0-11.03,5.78-8.72,12.92l134.29,413.29c2.32,7.14,9.98,12.92,17.11,12.92h193.74c7.13,0,11.03-5.78,8.71-12.92L401.05,12.92c-2.32-7.14-9.98-12.92-17.12-12.92h-193.73Z"/><path class="cls-2" d="M12.92,0C5.78,0,0,5.78,0,12.92v103.33c0,7.13,5.78,12.91,12.92,12.91h103.32c7.13,0,12.92-5.78,12.92-12.91V12.92C129.16,5.78,123.37,0,116.24,0H12.92Z"/></svg>