<svg xmlns="http://www.w3.org/2000/svg" id="Layer_1" viewBox="0 0 261.7 214.77"><defs><style> .cls-1 { fill: none; stroke: #fff; stroke-miterlimit: 10; stroke-width: 2px; } </style></defs><path class="cls-1" d="M7.26,107.38c-3.46,0-6.26,2.8-6.26,6.26v93.87c0,3.46,2.8,6.26,6.26,6.26h93.87c3.46,0,6.26-2.8,6.26-6.26v-93.87c0-3.46-2.8-6.26-6.26-6.26H7.26Z"/><path class="cls-1" d="M93.15,1c-3.45,0-5.35,2.8-4.22,6.26l65.06,200.25c1.12,3.45,4.84,6.26,8.29,6.26h93.87c3.46,0,5.35-2.8,4.23-6.26L195.31,7.26c-1.12-3.45-4.84-6.26-8.29-6.26h-93.87Z"/><path class="cls-1" d="M7.26,1C3.8,1,1,3.8,1,7.26v50.07c0,3.45,2.8,6.26,6.26,6.26h50.06c3.46,0,6.26-2.81,6.26-6.26V7.26c0-3.45-2.8-6.26-6.26-6.26H7.26Z"/></svg>