<svg xmlns="http://www.w3.org/2000/svg" version="1.1" viewBox="0 0 53 43"><defs><style> .cls-1 { fill: #fff; } </style></defs><g><g id="Layer_1"><g><path class="cls-1" d="M1.3,21.5c-.7,0-1.3.6-1.3,1.3v19c0,.7.6,1.3,1.3,1.3h19c.7,0,1.3-.6,1.3-1.3v-19c0-.7-.6-1.3-1.3-1.3,0,0-19,0-19,0Z"/><path class="cls-1" d="M18.6,0c-.7,0-1.1.6-.9,1.3l13.1,40.5c.2.7,1,1.3,1.7,1.3h19c.7,0,1.1-.6.9-1.3L39.3,1.3c-.2-.7-1-1.3-1.7-1.3h-19Z"/><path class="cls-1" d="M1.3,0C.6,0,0,.6,0,1.3v10.1c0,.7.6,1.3,1.3,1.3h10.1c.7,0,1.3-.6,1.3-1.3V1.3c0-.7-.6-1.3-1.3-1.3H1.3Z"/></g></g></g></svg>