<svg xmlns="http://www.w3.org/2000/svg" id="Layer_1" viewBox="0 0 259.7 212.77"><defs><style> .cls-1 { fill: #fff; } </style></defs><path class="cls-1" d="M6.26,106.38c-3.46,0-6.26,2.8-6.26,6.26v93.87c0,3.46,2.8,6.26,6.26,6.26h93.87c3.46,0,6.26-2.8,6.26-6.26v-93.87c0-3.46-2.8-6.26-6.26-6.26H6.26Z"/><path class="cls-1" d="M92.15,0c-3.45,0-5.35,2.8-4.22,6.26l65.06,200.25c1.12,3.45,4.84,6.26,8.29,6.26h93.87c3.46,0,5.35-2.8,4.23-6.26L194.31,6.26c-1.12-3.45-4.84-6.26-8.29-6.26h-93.87Z"/><path class="cls-1" d="M6.26,0C2.8,0,0,2.8,0,6.26v50.07c0,3.45,2.8,6.26,6.26,6.26h50.06c3.46,0,6.26-2.81,6.26-6.26V6.26c0-3.45-2.8-6.26-6.26-6.26H6.26Z"/></svg>